<svg xmlns="http://www.w3.org/2000/svg" xmlns:xlink="http://www.w3.org/1999/xlink" version="1.1" width="256" height="256" viewBox="0 0 256 256" xml:space="preserve">

<defs>
</defs>
<g style="stroke: none; stroke-width: 0; stroke-dasharray: none; stroke-linecap: butt; stroke-linejoin: miter; stroke-miterlimit: 10; fill: none; fill-rule: nonzero; opacity: 1;" transform="translate(1.4065934065934016 1.4065934065934016) scale(2.81 2.81)" >
	<rect x="-0.52" y="24.81" rx="0" ry="0" width="50.28" height="2.05" style="stroke: none; stroke-width: 1; stroke-dasharray: none; stroke-linecap: butt; stroke-linejoin: miter; stroke-miterlimit: 10; fill: rgb(176,182,188); fill-rule: nonzero; opacity: 1;" transform=" matrix(0.8108 -0.5853 0.5853 0.8108 -10.4623 19.2942) "/>
	<rect x="64.36" y="0.69" rx="0" ry="0" width="2.05" height="50.28" style="stroke: none; stroke-width: 1; stroke-dasharray: none; stroke-linecap: butt; stroke-linejoin: miter; stroke-miterlimit: 10; fill: rgb(176,182,188); fill-rule: nonzero; opacity: 1;" transform=" matrix(0.5853 -0.8109 0.8109 0.5853 6.1723 63.7304) "/>
	<path d="M 84.868 82.504 H 5.132 C 2.298 82.504 0 80.207 0 77.372 V 43.678 c 0 -2.834 2.298 -5.132 5.132 -5.132 h 79.736 c 2.834 0 5.132 2.298 5.132 5.132 v 33.695 C 90 80.207 87.702 82.504 84.868 82.504 z" style="stroke: none; stroke-width: 1; stroke-dasharray: none; stroke-linecap: butt; stroke-linejoin: miter; stroke-miterlimit: 10; fill: rgb(231,78,58); fill-rule: nonzero; opacity: 1;" transform=" matrix(1 0 0 1 0 0) " stroke-linecap="round" />
	<path d="M 17.199 73.088 h -4.208 c -3.205 0 -5.811 -2.607 -5.811 -5.812 V 54.644 c 0 -3.204 2.607 -5.811 5.811 -5.811 h 4.208 c 3.205 0 5.811 2.607 5.811 5.811 v 12.632 C 23.01 70.481 20.404 73.088 17.199 73.088 z M 12.991 50.879 c -2.076 0 -3.766 1.689 -3.766 3.765 v 12.632 c 0 2.076 1.689 3.766 3.766 3.766 h 4.208 c 2.076 0 3.766 -1.69 3.766 -3.766 V 54.644 c 0 -2.076 -1.689 -3.765 -3.766 -3.765 H 12.991 z" style="stroke: none; stroke-width: 1; stroke-dasharray: none; stroke-linecap: butt; stroke-linejoin: miter; stroke-miterlimit: 10; fill: rgb(242,242,242); fill-rule: nonzero; opacity: 1;" transform=" matrix(1 0 0 1 0 0) " stroke-linecap="round" />
	<path d="M 36.994 48.833 h -8.13 c -0.565 0 -1.023 0.457 -1.023 1.023 v 12.456 v 9.753 c 0 0.565 0.458 1.023 1.023 1.023 s 1.023 -0.457 1.023 -1.023 v -8.73 h 7.107 c 2.95 0 5.35 -2.4 5.35 -5.349 v -3.803 C 42.344 51.233 39.944 48.833 36.994 48.833 z M 40.298 57.986 c 0 1.822 -1.482 3.304 -3.304 3.304 h -7.107 V 50.879 h 7.107 c 1.822 0 3.304 1.482 3.304 3.304 V 57.986 z" style="stroke: none; stroke-width: 1; stroke-dasharray: none; stroke-linecap: butt; stroke-linejoin: miter; stroke-miterlimit: 10; fill: rgb(242,242,242); fill-rule: nonzero; opacity: 1;" transform=" matrix(1 0 0 1 0 0) " stroke-linecap="round" />
	<path d="M 59.977 61.983 c 0.565 0 1.023 -0.457 1.023 -1.023 c 0 -0.565 -0.457 -1.023 -1.023 -1.023 H 49.109 v -9.059 h 10.868 c 0.565 0 1.023 -0.457 1.023 -1.023 s -0.457 -1.023 -1.023 -1.023 H 48.086 c -0.565 0 -1.023 0.457 -1.023 1.023 v 22.209 c 0 0.565 0.457 1.023 1.023 1.023 h 11.891 c 0.565 0 1.023 -0.457 1.023 -1.023 s -0.457 -1.023 -1.023 -1.023 H 49.109 v -9.06 H 59.977 z" style="stroke: none; stroke-width: 1; stroke-dasharray: none; stroke-linecap: butt; stroke-linejoin: miter; stroke-miterlimit: 10; fill: rgb(242,242,242); fill-rule: nonzero; opacity: 1;" transform=" matrix(1 0 0 1 0 0) " stroke-linecap="round" />
	<path d="M 81.797 73.088 c -0.342 0 -0.668 -0.172 -0.86 -0.469 L 68.535 53.337 v 18.729 c 0 0.565 -0.457 1.023 -1.023 1.023 c -0.565 0 -1.023 -0.457 -1.023 -1.023 V 49.856 c 0 -0.453 0.299 -0.853 0.734 -0.981 c 0.437 -0.132 0.903 0.046 1.149 0.427 l 12.403 19.282 V 49.856 c 0 -0.565 0.457 -1.023 1.023 -1.023 c 0.565 0 1.023 0.457 1.023 1.023 v 22.209 c 0 0.453 -0.299 0.853 -0.734 0.981 C 81.99 73.075 81.893 73.088 81.797 73.088 z" style="stroke: none; stroke-width: 1; stroke-dasharray: none; stroke-linecap: butt; stroke-linejoin: miter; stroke-miterlimit: 10; fill: rgb(242,242,242); fill-rule: nonzero; opacity: 1;" transform=" matrix(1 0 0 1 0 0) " stroke-linecap="round" />
	<circle cx="45.003" cy="11.123000000000001" r="3.623" style="stroke: none; stroke-width: 1; stroke-dasharray: none; stroke-linecap: butt; stroke-linejoin: miter; stroke-miterlimit: 10; fill: rgb(214,224,235); fill-rule: nonzero; opacity: 1;" transform="  matrix(1 0 0 1 0 0) "/>
</g>
</svg>